<?xml version="1.0" standalone="no"?>
<!DOCTYPE svg PUBLIC "-//W3C//DTD SVG 20010904//EN"
 "http://www.w3.org/TR/2001/REC-SVG-20010904/DTD/svg10.dtd">
<svg version="1.0" xmlns="http://www.w3.org/2000/svg"
 width="700.000000pt" height="700.000000pt" viewBox="0 0 700.000000 700.000000"
 preserveAspectRatio="xMidYMid meet">
<metadata>
Created by potrace 1.14, written by Peter Selinger 2001-2017
</metadata>
<g transform="translate(0.000000,700.000000) scale(0.100000,-0.100000)"
fill="#000000" stroke="none">
<path d="M3463 6962 c-15 -15 -161 -167 -423 -442 -30 -32 -125 -131 -211
-221 -87 -90 -174 -182 -194 -204 -21 -22 -118 -123 -215 -225 -98 -102 -192
-201 -210 -220 -18 -19 -107 -113 -199 -209 -91 -95 -179 -188 -196 -205 -16
-18 -107 -113 -202 -212 -94 -98 -195 -204 -225 -235 -44 -46 -193 -203 -433
-454 -153 -161 -386 -404 -415 -435 -242 -252 -362 -379 -363 -383 -2 -5 55
-68 202 -222 110 -115 400 -421 441 -465 19 -20 94 -99 166 -176 73 -76 150
-159 173 -182 22 -24 107 -114 188 -200 81 -85 162 -170 178 -187 67 -71 322
-341 355 -375 19 -20 69 -73 110 -116 41 -44 145 -153 230 -243 85 -90 171
-181 190 -201 19 -21 103 -108 185 -195 83 -87 161 -171 175 -185 138 -147
414 -439 577 -609 45 -48 92 -98 105 -114 13 -15 27 -27 31 -27 7 0 97 92 307
310 40 41 176 183 304 314 276 286 302 313 568 587 113 118 210 218 214 222 4
4 -122 138 -281 297 l-289 289 -51 -53 c-43 -46 -178 -188 -355 -376 -29 -30
-109 -115 -178 -188 -70 -74 -152 -160 -183 -193 l-55 -59 -53 57 c-30 32
-148 157 -265 278 -187 194 -308 320 -456 475 -25 26 -135 141 -245 255 -110
115 -213 223 -230 240 -16 18 -109 114 -205 214 -96 100 -202 210 -234 244
-66 69 -427 446 -466 486 -58 61 -63 69 -49 84 19 19 306 321 409 430 122 130
233 247 495 522 63 67 298 315 345 365 23 25 104 110 180 190 75 80 154 163
175 185 40 43 275 291 421 444 50 53 111 117 135 143 l45 47 244 -250 c135
-137 324 -331 420 -429 97 -99 180 -180 186 -180 5 0 57 50 114 111 58 62 125
133 150 159 177 186 275 293 275 300 0 4 -93 104 -207 221 -113 118 -241 250
-283 294 -43 44 -187 193 -320 330 -133 138 -261 270 -285 295 -97 102 -292
300 -296 300 -2 0 -12 -8 -21 -18z"/>
<path d="M5065 5155 c-49 -53 -114 -122 -143 -153 -53 -57 -106 -112 -296
-313 -56 -58 -137 -144 -181 -190 -44 -47 -125 -132 -180 -190 -55 -58 -131
-139 -170 -180 -38 -41 -143 -151 -231 -244 -89 -94 -176 -186 -194 -205 -18
-19 -98 -104 -178 -188 -81 -85 -157 -166 -171 -180 -13 -15 -90 -97 -172
-182 -81 -85 -168 -177 -194 -205 -26 -27 -99 -106 -164 -173 -64 -68 -117
-127 -119 -132 -1 -4 18 -29 44 -56 25 -27 92 -98 149 -159 103 -109 172 -182
288 -303 l61 -64 36 41 c21 23 96 103 168 179 72 75 151 160 177 187 26 28
109 115 185 195 75 80 161 171 190 203 29 31 56 57 60 57 6 0 166 -159 320
-320 40 -41 197 -203 350 -360 152 -157 318 -327 367 -378 l89 -93 120 126
c65 70 147 156 182 193 161 170 237 254 237 262 0 7 -64 79 -201 226 -16 17
-67 73 -114 124 -47 50 -98 107 -115 124 -39 43 -227 246 -240 260 -25 28
-245 266 -286 311 -26 27 -65 70 -87 95 l-41 45 217 220 c119 121 242 244 273
273 l56 53 74 -77 c41 -42 90 -93 109 -113 19 -21 100 -107 180 -191 80 -85
177 -188 216 -230 40 -41 91 -96 115 -121 279 -295 339 -358 368 -387 l34 -34
289 289 288 288 -43 44 c-23 24 -55 59 -72 76 -16 17 -96 101 -176 186 -81 85
-161 170 -179 189 -32 35 -258 273 -355 375 -172 180 -346 364 -369 390 -25
27 -212 223 -406 427 l-75 79 -90 -96z"/>
</g>
</svg>
